<svg width="55" height="66" viewBox="0 0 55 66" fill="none" xmlns="http://www.w3.org/2000/svg">
<path d="M27.3881 3.83722C14.4663 3.83722 3.83721 8.89274 3.83721 8.89274V51.4762C12.9602 58.057 27.3881 62.0189 27.3881 62.0189C27.3881 62.0189 41.816 58.057 50.939 51.4762V8.89274C50.9485 8.89274 40.3195 3.83722 27.3881 3.83722Z" fill="#216DA1"/>
<path d="M27.3881 3.83721C40.3195 3.83721 50.9389 8.89273 50.9389 8.89273V51.4762C41.816 58.057 27.3881 62.0189 27.3881 62.0189C27.3881 62.0189 12.9602 58.0474 3.83721 51.4666V8.89273C3.83721 8.89273 14.4663 3.83721 27.3881 3.83721ZM27.3881 0C13.7564 0 2.65727 5.19942 2.18721 5.42006L0 6.4657V8.89273V51.4762V53.4427L1.59244 54.5939C11.1663 61.5009 25.7573 65.5587 26.3712 65.7218L27.3881 66L28.4049 65.7218C29.0189 65.5491 43.6099 61.4913 53.1837 54.5939L54.7762 53.4427V51.4762V8.89273V6.4657L52.5889 5.42006C52.1285 5.19942 41.0294 0 27.3881 0Z" fill="#BAA316"/>
<path d="M27.3881 3.83723C40.3195 3.83723 50.9389 8.89276 50.9389 8.89276V51.4762C41.816 58.057 27.3881 62.0189 27.3881 62.0189C27.3881 62.0189 12.9602 58.0474 3.83721 51.4666V8.89276C3.83721 8.89276 14.4663 3.83723 27.3881 3.83723ZM27.3881 2.87793C14.3991 2.87793 3.86599 7.80874 3.42471 8.01979L2.87791 8.2788V8.88316V51.4666V51.9558L3.28081 52.2436C12.4422 58.8436 26.5439 62.7672 27.1387 62.9303L27.3977 62.9974L27.6567 62.9303C28.2515 62.7672 42.3532 58.8436 51.5145 52.2436L51.9174 51.9558V51.4666V8.89276V8.2788L51.3706 8.01979C50.9102 7.80874 40.3866 2.87793 27.3881 2.87793Z" fill="white"/>
<path d="M33.3549 18.2939C33 17.4401 33.3837 16.4904 33.1727 15.6078C33.1631 15.5791 33.1439 15.5215 33.1343 15.4927C32.9424 15.0706 32.5875 14.7253 32.1462 14.5814C31.561 14.3895 30.8703 14.5046 30.3907 14.9076C29.8439 15.3488 29.5465 16.0108 29.2299 16.6247C29.2012 16.6919 29.1724 16.7494 29.1436 16.8166C28.9038 17.3442 28.7119 17.891 28.5009 18.4378C28.5776 17.9485 28.7119 17.4785 28.8078 16.9988C28.8174 16.9701 28.827 16.9029 28.8366 16.8741C29.0669 15.7709 29.1724 14.6294 29.0573 13.507C28.9038 12.2215 28.2035 11.0703 27.3785 10.0919C26.7741 11.2046 26.0355 12.2887 25.8244 13.5645C25.575 14.9747 25.9491 16.3945 26.3041 17.7567C26.4192 18.2076 26.5151 18.6584 26.5535 19.1285C26.3808 18.6968 26.2369 18.2555 26.093 17.8238C25.8052 16.9988 25.4407 16.1834 24.9035 15.4927C24.5198 14.9939 23.973 14.5814 23.3302 14.5142C22.889 14.4567 22.3709 14.4951 22.064 14.85C21.7953 15.1666 21.757 15.6078 21.7282 16.0012C21.6706 16.7878 21.8625 17.6416 21.45 18.3514C21.191 18.7927 20.6346 18.8119 20.1933 18.927C20.7209 19.3779 21.4116 19.6657 22.1119 19.5506C22.6395 19.5122 23.052 19.1285 23.3686 18.7352C23.5221 18.5625 23.6756 18.3706 23.8866 18.2651C24.0881 18.1692 24.3087 18.2843 24.491 18.3706L24.539 18.409C24.8172 18.6968 25.0186 19.0517 25.2297 19.3875C25.4599 19.6657 25.0762 20.059 25.364 20.3084C25.623 20.3564 25.8052 20.1358 25.9971 20.011C26.3616 19.7328 26.8317 19.7328 27.273 19.7137C27.7814 19.7137 28.2994 19.7328 28.7887 19.8576C29.1052 19.9343 29.2875 20.3276 29.6328 20.318C29.9015 20.0878 29.7 19.7616 29.5849 19.5026C29.8535 19.1956 30.0645 18.8407 30.3427 18.5337C30.525 18.3419 30.8416 18.198 31.0814 18.3514C31.3788 18.5817 31.5131 18.9654 31.8201 19.186C32.3189 19.5314 32.9616 19.6465 33.5564 19.541C33.9593 19.4546 34.2951 19.2148 34.5733 18.9174C34.132 18.8407 33.5756 18.7735 33.3549 18.2939ZM25.316 18.1788C25.2968 18.1404 25.268 18.102 25.2488 18.0637C24.9035 17.4881 24.5294 16.8837 23.9442 16.5192C23.618 16.2889 23.0808 16.3273 22.889 16.7206C22.6491 17.277 22.8218 17.9677 22.4381 18.4762C22.2366 18.7831 21.8529 18.8695 21.5267 18.975C22.1695 18.2939 22.064 17.3058 22.1215 16.4424C22.1599 15.982 22.2078 15.4256 22.6203 15.1378C23.1096 14.8308 23.7427 15.0035 24.1552 15.3584C25.0186 15.9724 25.4599 16.9796 25.8724 17.9198C26.1026 18.3898 26.2465 18.9174 26.2561 19.4451C25.6997 19.2628 25.6134 18.6105 25.316 18.1788ZM27.6663 19.2436C27.5128 19.1764 27.436 19.0038 27.4552 18.8407C27.4744 18.3514 27.4456 17.8718 27.4552 17.3826V17.2387C27.3977 15.0227 27.5416 12.8163 27.4648 10.6003C27.8006 11.0799 28.0596 11.598 28.2419 12.164C28.7407 13.6796 28.7887 15.3296 28.5392 16.8933C28.5392 16.9125 28.5297 16.9605 28.5297 16.9796C28.4241 17.6032 28.3282 18.2267 28.1363 18.8215C28.0692 19.023 27.9157 19.2628 27.6663 19.2436ZM29.3642 17.2866C29.4314 17.1044 29.4985 16.9221 29.5849 16.7494C29.8727 16.2122 30.1701 15.6462 30.6593 15.2625C31.3308 14.7349 32.4916 14.9459 32.8369 15.7613C32.9616 16.4904 32.6547 17.2195 32.8273 17.9485C32.9137 18.4186 33.307 18.7352 33.5756 19.1093C33.2015 19.0805 32.789 18.975 32.5875 18.6296C32.1654 17.9581 32.2038 17.0948 31.7625 16.4328C31.2828 16.4904 30.8032 16.6439 30.4483 16.9892C29.7288 17.6799 29.4794 18.7064 28.8078 19.4355C28.5201 18.9942 28.9038 18.5241 29.0669 18.1212" fill="#C7DAE2"/>
<path d="M26.9372 20.4906C26.8892 20.3276 26.7166 20.1645 26.7837 19.9918C26.9084 19.8863 27.0523 20.0206 27.1866 20.059C27.1387 20.1933 27.0907 20.318 27.0523 20.4523C27.1579 20.4139 27.273 20.3755 27.3881 20.3468C27.3497 20.222 27.3113 20.0973 27.273 19.9726C27.3977 19.9726 27.5224 19.9726 27.6567 19.9726C27.6183 20.1165 27.5799 20.27 27.5512 20.4139C27.6375 20.3851 27.7142 20.3659 27.8006 20.3372C27.8485 20.2125 27.8102 19.9438 28.0116 19.9438C28.2994 19.9438 28.0788 20.27 28.0692 20.4331C28.1172 20.3947 28.2227 20.318 28.2802 20.2796C28.3186 20.3468 28.3858 20.4906 28.4145 20.5578C28.5201 20.4043 28.5297 20.222 28.5488 20.0398C28.6544 20.0973 28.7695 20.1645 28.875 20.222C28.7887 20.3276 28.7119 20.4331 28.6735 20.5674C28.827 20.5578 28.9709 20.5866 29.0956 20.6729C29.134 20.529 29.1724 20.3755 29.3163 20.2988C29.2971 20.7976 29.3834 21.2965 29.4314 21.7953C29.3259 21.7473 29.2204 21.6994 29.1244 21.6418C29.0669 21.5171 29.086 21.3732 29.086 21.2389C29.0477 21.2677 28.9805 21.3156 28.9422 21.3444C28.8654 21.2389 28.7887 21.143 28.7215 21.0375C28.7119 21.0662 28.6927 21.143 28.6831 21.1718C28.7599 21.3061 28.8174 21.45 28.8366 21.6034C28.7023 21.5651 28.568 21.5267 28.4337 21.4883C28.4337 21.3348 28.4337 21.1909 28.4337 21.0375C28.3858 21.0566 28.2994 21.1046 28.2515 21.1238C28.2131 21.0758 28.1363 20.9895 28.1076 20.9415C28.0884 20.9607 28.05 21.0087 28.0404 21.0279C28.0788 21.1526 28.1172 21.2869 28.1555 21.4116C28.0692 21.4116 27.8869 21.4116 27.8006 21.4116C27.8006 21.2485 27.8006 21.0854 27.8006 20.9223C27.743 20.9319 27.6279 20.9415 27.5704 20.9415C27.5704 21.095 27.5799 21.2581 27.5895 21.4116C27.5224 21.402 27.3881 21.3924 27.3209 21.3924C27.2922 21.2293 27.2634 21.0662 27.2346 20.9127C27.1003 21.047 27.1387 21.2389 27.1291 21.4116C27.0044 21.4116 26.8797 21.4212 26.7454 21.4212C26.8125 21.2677 26.8701 21.1142 26.9372 20.9607C26.8317 21.0279 26.7166 21.0854 26.611 21.1526C26.611 21.2581 26.611 21.3732 26.611 21.4787C26.4767 21.5075 26.3329 21.5363 26.1985 21.5651C26.2561 21.402 26.3137 21.2293 26.3233 21.0566C26.141 21.2773 26.141 21.709 25.7669 21.6898C25.7573 21.2197 25.7381 20.7401 25.8532 20.2796C26.0642 20.2412 25.9971 20.5482 26.0547 20.6729C26.1026 20.577 26.1122 20.4715 26.1218 20.3659C26.1698 20.4235 26.2561 20.529 26.3041 20.5866C26.3233 20.4235 26.2753 20.27 26.2273 20.1165C26.2945 20.1165 26.4288 20.1165 26.4959 20.1069" fill="#C7DAE2"/>
<path d="M29.5369 22.9945C29.3259 22.8698 29.2108 22.6395 29.086 22.4285C29.2012 22.4956 29.3163 22.5628 29.4314 22.6299C29.5081 22.486 29.5849 22.3422 29.6616 22.1983C29.5273 22.1119 29.4026 22.016 29.2587 21.9392C28.4433 21.6227 27.5512 21.5459 26.6878 21.6706C26.2081 21.757 25.6997 21.9105 25.4119 22.323C25.5366 22.4381 25.6517 22.5628 25.7765 22.6779C25.8148 22.6203 25.8916 22.5148 25.9299 22.4669C25.9587 22.4573 26.0163 22.4477 26.0451 22.4477C25.882 22.6587 25.7381 22.889 25.4983 23.0137C25.2009 23.1767 24.8651 23.1767 24.539 23.2055C25.0378 23.8387 26.0834 23.8483 26.6206 23.2631C26.8221 23.0041 26.8797 22.6683 27.0044 22.3805C26.9372 22.8314 26.8797 23.2919 26.9372 23.7523C26.9852 24.1552 27.1483 24.5198 27.3977 24.8363C28.098 24.491 28.098 23.618 28.1076 22.9465C28.5297 23.7619 29.8439 23.9826 30.4099 23.2055C30.1029 23.148 29.7959 23.148 29.5369 22.9945ZM27.5799 23.7619C27.5032 23.3398 27.5224 22.9081 27.5704 22.486C27.8294 22.841 27.8006 23.3878 27.5799 23.7619Z" fill="#C7DAE2"/>
<path d="M8.3747 44.4253C9.39156 39.5808 10.3892 34.7267 11.4253 29.8822C12.5956 29.8439 13.7756 29.9014 14.9459 29.8439C14.9939 29.9014 15.0323 29.959 15.0802 30.0165C14.9076 30.5442 14.8404 31.1006 14.7061 31.6378C13.8139 35.8971 12.9218 40.166 12.0296 44.4253C10.8113 44.4253 9.59302 44.4349 8.3747 44.4253Z" fill="white"/>
<path d="M16.7398 29.8823C19.2148 29.8727 21.6994 29.8823 24.1744 29.8823C25.364 29.8343 26.659 29.9494 27.6279 30.7073C28.098 31.1198 28.4913 31.6474 28.616 32.2709C28.7791 33.0959 28.6735 33.9689 28.357 34.7555C27.9061 35.8395 27.0235 36.7125 26.0163 37.2881C25.4119 37.6238 24.7596 37.8637 24.0977 38.0459C23.1192 38.3049 22.1023 38.3721 21.0951 38.3817C20.8648 38.3721 20.625 38.4009 20.3948 38.3433C20.0782 37.643 19.9247 36.8756 19.7137 36.1273C20.4907 36.1753 21.2869 36.2616 22.064 36.1561C22.9369 36.0506 23.8003 35.7052 24.4142 35.0625C24.8843 34.5733 25.1529 33.9017 25.1241 33.2206C25.1049 32.8753 24.9227 32.5204 24.6061 32.3573C24.1265 32.0983 23.5605 32.0887 23.0233 32.0791C21.9392 32.0791 20.8552 32.0791 19.7712 32.0791C19.282 34.4294 18.7735 36.7797 18.3035 39.1395C17.9198 40.8951 17.5648 42.6602 17.1907 44.4157C16.6247 44.4157 16.0587 44.4157 15.4927 44.4157C14.8884 44.4157 14.2936 44.4157 13.6892 44.4157C14.7061 39.5808 15.7134 34.7267 16.7398 29.8823Z" fill="white"/>
<path d="M29.8919 30.4866C31.3308 30.4866 32.7698 30.4866 34.2087 30.4866C34.8706 33.3646 35.523 36.2329 36.1849 39.1108C36.9811 37.9596 37.7677 36.7989 38.5544 35.6381C39.3122 34.5253 40.0796 33.4125 40.8375 32.2997C41.25 31.6954 41.6529 31.091 42.075 30.4962C43.5235 30.4866 44.9625 30.525 46.411 30.4771C46.2288 31.3596 46.0561 32.2326 45.893 33.1151C45.1352 36.8852 44.4157 40.6552 43.6674 44.4253C43.4276 44.4253 43.1974 44.4253 42.9671 44.4253C42.2093 44.4253 41.4514 44.4253 40.6936 44.4253C41.3459 41.0294 42.0366 37.6334 42.6889 34.2279C41.5474 36.1082 40.4058 37.9884 39.2642 39.8686C38.3433 41.3843 37.4224 42.9096 36.5014 44.4157C35.6764 44.4061 34.861 44.4253 34.036 44.4157C33.8826 43.6387 33.7195 42.8616 33.5564 42.0846C33 39.3794 32.4436 36.6741 31.868 33.9689C31.2445 37.173 30.6113 40.3771 29.9878 43.5811C29.9302 43.8593 29.9014 44.1375 29.7959 44.4061C28.923 44.4349 28.05 44.4061 27.1866 44.4157C27.225 44.2334 27.2634 44.0512 27.2921 43.8689C27.8677 40.9334 28.4433 37.9884 29.0189 35.0529C29.2683 33.7771 29.5177 32.5012 29.7671 31.2253C29.8055 30.9855 29.8439 30.7361 29.8919 30.4866Z" fill="white"/>
</svg>
