<svg width="328" height="53" viewBox="0 0 328 53" fill="none" xmlns="http://www.w3.org/2000/svg">
<path d="M21.8308 0L0 43.2238H10.1412L31.98 0H21.8308Z" fill="#F2617A"/>
<path d="M147.472 17.3025L145.723 20.7582H145.619C144.896 19.3785 143.777 18.2505 142.41 17.521C141.027 16.8802 139.518 16.5673 137.997 16.6066C136.356 16.5718 134.73 16.9325 133.255 17.6586C131.908 18.3319 130.727 19.2995 129.797 20.4911C128.845 21.7158 128.129 23.1105 127.687 24.6023C127.202 26.1741 126.958 27.8117 126.965 29.458C126.954 31.1495 127.157 32.8355 127.567 34.4755C127.941 35.9802 128.61 37.3944 129.533 38.6353C130.438 39.8321 131.612 40.7946 132.959 41.4435C134.517 42.1646 136.219 42.5161 137.933 42.4713C139.468 42.4787 140.986 42.1444 142.378 41.492C143.764 40.8675 144.908 39.8013 145.635 38.4572H145.731V41.8724C145.731 45.9188 143.854 48.2334 140.115 48.2334C136.376 48.2334 134.387 46.6148 133.328 45.2876L130.776 50.378C130.776 50.378 133.665 53 139.128 53C148.186 53 152.439 48.5571 152.439 41.5649V17.2864L147.472 17.3025ZM145.354 32.6223C145.118 33.4445 144.737 34.2174 144.231 34.9045C143.73 35.5787 143.086 36.1317 142.346 36.523C141.53 36.9354 140.626 37.1409 139.714 37.1219C138.754 37.1582 137.804 36.9137 136.978 36.4178C136.258 35.963 135.654 35.345 135.213 34.6131C134.753 33.8525 134.434 33.0132 134.274 32.1367C134.089 31.2205 133.995 30.2879 133.993 29.3528C133.991 28.4148 134.102 27.48 134.322 26.5688C134.521 25.7248 134.875 24.9259 135.365 24.2138C135.833 23.545 136.445 22.9917 137.155 22.5953C137.942 22.1744 138.824 21.968 139.714 21.9964C140.713 21.957 141.706 22.1801 142.594 22.6438C143.333 23.0618 143.958 23.6566 144.415 24.3757C144.896 25.1525 145.233 26.0107 145.41 26.9087C145.614 27.9043 145.714 28.9188 145.707 29.9355C145.718 30.8435 145.599 31.7483 145.354 32.6223Z" fill="#003D4F"/>
<path d="M53.3863 7.4292V20.9119H53.5387C54.3339 19.5014 55.5262 18.3608 56.9646 17.6343C58.2237 16.9796 59.6159 16.6279 61.0323 16.6065C62.6212 16.5636 64.2027 16.8387 65.6857 17.4158C66.8066 17.8715 67.7909 18.6133 68.5419 19.5685C69.267 20.5664 69.7655 21.713 70.0021 22.927C70.2964 24.3699 70.4389 25.8402 70.4273 27.3133V43.2562H63.383V28.5839C63.493 26.9277 63.1488 25.2729 62.3882 23.801C61.7303 22.7408 60.5509 22.1824 58.866 22.1824C56.9405 22.1824 55.5525 22.7651 54.686 23.9143C53.8195 25.0635 53.3943 26.9653 53.3943 29.5793V43.2238H46.334V7.4292H53.3863Z" fill="#003D4F"/>
<path d="M73.3861 24.6506C73.9642 23.0364 74.8779 21.5657 76.0658 20.3371C77.2533 19.1372 78.6736 18.1977 80.2378 17.5774C83.7778 16.28 87.6574 16.28 91.1974 17.5774C92.7853 18.1813 94.2236 19.1269 95.4125 20.3484C96.6013 21.5699 97.512 23.038 98.0812 24.6506C98.7334 26.4657 99.0541 28.385 99.0279 30.3155C99.052 32.2301 98.7312 34.1331 98.0812 35.932C97.493 37.5315 96.5803 38.9897 95.4015 40.2131C94.206 41.3988 92.7724 42.3122 91.1974 42.8918C87.649 44.1562 83.7782 44.1562 80.2298 42.8918C78.6623 42.2892 77.2401 41.3567 76.0578 40.1564C74.8737 38.9372 73.9603 37.4779 73.3781 35.8753C72.7242 34.0775 72.4033 32.1737 72.4314 30.2589C72.4106 28.3466 72.7341 26.4463 73.3861 24.6506ZM79.8046 33.318C79.982 34.2603 80.3272 35.1624 80.8235 35.9805C81.2936 36.7582 81.9503 37.4039 82.733 37.8581C83.6477 38.3573 84.6783 38.6004 85.7176 38.5622C86.7617 38.5971 87.7966 38.3543 88.7182 37.8581C89.5138 37.4097 90.1822 36.7634 90.6598 35.9805C91.1532 35.1609 91.4982 34.2594 91.6788 33.318C91.8795 32.3219 91.979 31.3077 91.9756 30.2913C91.9778 29.2641 91.8784 28.2394 91.6788 27.2322C91.502 26.2897 91.1568 25.3875 90.6598 24.5696C90.1725 23.7835 89.5035 23.1281 88.7102 22.6597C87.7915 22.1543 86.7556 21.9056 85.7096 21.9395C84.7374 21.8872 83.7693 22.1011 82.9078 22.5584C82.0463 23.0157 81.3233 23.6994 80.8155 24.5373C80.3153 25.3534 79.9698 26.2563 79.7966 27.1998C79.5943 28.2067 79.4922 29.2315 79.4917 30.2589C79.4888 31.2865 79.5909 32.3116 79.7966 33.318H79.8046Z" fill="#003D4F"/>
<path d="M118.285 43.2241V39.6551H118.141C117.332 41.0652 116.118 42.1942 114.659 42.8923C113.291 43.5428 111.798 43.8826 110.286 43.8877C108.705 43.9385 107.129 43.6858 105.641 43.1432C104.514 42.706 103.527 41.9674 102.785 41.0066C102.052 40.0121 101.551 38.8643 101.317 37.6481C101.022 36.2052 100.88 34.7349 100.891 33.2618V17.3027H107.952V31.9427C107.842 33.6014 108.186 35.2588 108.946 36.7336C109.604 37.7857 110.781 38.3252 112.477 38.3522C114.397 38.3522 115.787 37.7749 116.649 36.6203C117.507 35.4712 117.94 33.5693 117.94 30.9553V17.3027H124.993V43.1998L118.285 43.2241Z" fill="#003D4F"/>
<path d="M162.13 7.4292V20.9119H162.274C163.074 19.5021 164.269 18.3619 165.708 17.6343C166.967 16.9796 168.36 16.6279 169.776 16.6065C171.365 16.5636 172.946 16.8387 174.429 17.4158C175.555 17.8588 176.548 18.5894 177.31 19.5361C178.034 20.5352 178.535 21.6811 178.778 22.8946C179.069 24.3379 179.209 25.8081 179.195 27.2809V43.2238H172.143V28.5839C172.249 26.928 171.905 25.2742 171.148 23.801C170.485 22.722 169.308 22.1824 167.618 22.1824C165.692 22.1824 164.304 22.7651 163.446 23.9143C162.587 25.0635 162.154 26.9653 162.154 29.5793V43.2238H155.094V7.4292H162.13Z" fill="#003D4F"/>
<path d="M233.04 24.6514C233.612 23.0455 234.52 21.5826 235.702 20.3621C236.884 19.1416 238.313 18.1922 239.892 17.5783C243.432 16.2809 247.311 16.2809 250.851 17.5783C252.437 18.1855 253.874 19.1322 255.062 20.3533C256.251 21.5743 257.163 23.0407 257.735 24.6514C258.387 26.4666 258.708 28.3859 258.682 30.3164C258.706 32.2309 258.385 34.1339 257.735 35.9328C257.148 37.5347 256.232 38.9935 255.047 40.2139C253.859 41.4003 252.43 42.314 250.859 42.8927C247.311 44.1571 243.44 44.1571 239.892 42.8927C238.323 42.2921 236.901 41.3594 235.72 40.1573C234.535 38.9369 233.619 37.4781 233.032 35.8762C232.385 34.0768 232.067 32.1738 232.093 30.2598C232.074 28.3482 232.395 26.4487 233.04 24.6514ZM239.459 33.3188C239.639 34.2602 239.984 35.1618 240.477 35.9814C240.953 36.7577 241.612 37.4028 242.395 37.8589C243.31 38.3582 244.34 38.6013 245.38 38.563C246.424 38.598 247.459 38.3551 248.38 37.8589C249.174 37.4083 249.842 36.7624 250.322 35.9814C250.815 35.1618 251.16 34.2602 251.341 33.3188C251.541 32.3228 251.641 31.3086 251.638 30.2921C251.64 29.265 251.54 28.2402 251.341 27.233C251.164 26.2905 250.819 25.3883 250.322 24.5705C249.832 23.7861 249.164 23.1313 248.372 22.6606C247.453 22.1551 246.418 21.9064 245.372 21.9403C244.33 21.903 243.299 22.1519 242.387 22.6606C241.612 23.1283 240.956 23.771 240.469 24.5381C239.972 25.3559 239.627 26.2582 239.451 27.2007C239.255 28.2084 239.155 29.2328 239.154 30.2598C239.152 31.2868 239.252 32.3116 239.451 33.3188H239.459Z" fill="#003D4F"/>
<path d="M287.812 7.4292V26.6335L296.702 17.3025H305.054L295.362 26.8277L306.153 43.2238H297.6L290.548 31.643L287.812 34.2974V43.1995H280.752V7.4292H287.812Z" fill="#003D4F"/>
<path d="M311.367 36.7818C311.667 37.3166 312.081 37.7781 312.578 38.1333C313.099 38.5031 313.68 38.777 314.295 38.9426C314.953 39.1125 315.63 39.1969 316.309 39.1935C316.835 39.1918 317.36 39.1321 317.874 39.0154C318.396 38.9095 318.899 38.7239 319.366 38.4651C319.808 38.2204 320.19 37.8772 320.481 37.4616C320.803 36.9864 320.961 36.4177 320.93 35.843C320.93 34.7748 320.224 33.9736 318.82 33.4152C316.898 32.7344 314.93 32.1935 312.931 31.7966C311.904 31.5619 310.901 31.2868 309.923 30.9873C308.989 30.7094 308.1 30.2979 307.283 29.7653C306.532 29.2608 305.904 28.5912 305.446 27.8069C304.957 26.9286 304.716 25.9324 304.748 24.9258C304.688 23.4912 305.024 22.0679 305.719 20.8146C306.343 19.7636 307.224 18.8915 308.278 18.2816C309.4 17.6474 310.621 17.2121 311.888 16.9948C313.23 16.7437 314.592 16.619 315.956 16.6226C317.316 16.6178 318.674 16.7507 320.008 17.0191C321.247 17.259 322.434 17.7193 323.514 18.3787C324.545 19.0152 325.419 19.8783 326.073 20.9037C326.801 22.1113 327.22 23.4822 327.293 24.8934H320.585C320.599 24.3328 320.464 23.7787 320.193 23.289C319.922 22.7992 319.525 22.3919 319.045 22.1095C318.025 21.6033 316.9 21.3534 315.763 21.3811C315.332 21.3828 314.901 21.4071 314.472 21.454C314.035 21.5 313.608 21.6119 313.204 21.7858C312.826 21.9437 312.492 22.194 312.233 22.5141C311.954 22.8757 311.814 23.3272 311.84 23.7847C311.829 24.0797 311.886 24.3733 312.006 24.6427C312.125 24.9121 312.305 25.1502 312.53 25.3385C313.066 25.781 313.681 26.1137 314.343 26.3178C315.183 26.5939 316.037 26.8209 316.903 26.9976C317.866 27.2026 318.844 27.4211 319.839 27.6531C320.854 27.88 321.856 28.1637 322.84 28.5028C323.77 28.8117 324.649 29.259 325.447 29.8301C326.205 30.3702 326.835 31.0721 327.293 31.8856C327.786 32.8178 328.026 33.8646 327.991 34.9205C328.058 36.3224 327.751 37.7168 327.104 38.9591C326.456 40.2014 325.491 41.2464 324.308 41.9855C323.162 42.7109 321.891 43.2132 320.561 43.4665C319.145 43.7487 317.705 43.8896 316.261 43.8873C314.792 43.8912 313.327 43.742 311.888 43.4422C310.54 43.17 309.252 42.6546 308.085 41.9208C306.879 41.1762 305.886 40.1283 305.202 38.8799C304.519 37.6314 304.169 36.2252 304.186 34.7991H310.893C310.872 35.4909 311.035 36.1758 311.367 36.7818Z" fill="#003D4F"/>
<path d="M194.101 37.9068C193.253 38.011 192.397 37.7979 191.694 37.3079C191.209 36.5992 190.997 35.7354 191.101 34.8801V22.0691H195.04L197.447 17.3024H191.109V9.53333H184.048V17.3024H180.518L178.111 22.061H184.04V37.3565C183.994 38.4466 184.218 39.5313 184.69 40.5127C185.093 41.2886 185.705 41.9338 186.455 42.3741C187.256 42.8234 188.132 43.1197 189.039 43.2481C190.066 43.4041 191.104 43.4799 192.144 43.4747C192.842 43.4747 193.548 43.4747 194.278 43.4261C194.944 43.3977 195.609 43.3302 196.268 43.2238V37.7045C195.923 37.7778 195.575 37.8292 195.225 37.8582C194.88 37.8906 194.502 37.9068 194.101 37.9068Z" fill="#003D4F"/>
<path d="M41.9351 37.9067C41.0872 38.0101 40.2311 37.7971 39.5282 37.3078C39.0424 36.5991 38.8312 35.7353 38.9345 34.88V22.069H42.5689L44.9759 17.3023H38.9505V9.5332H31.8982V17.3023H28.3601L25.9531 22.0609H31.8902V37.3564C31.8419 38.4458 32.0624 39.5303 32.5321 40.5126C32.9372 41.2867 33.5485 41.9313 34.2971 42.3739C35.1055 42.8249 35.9895 43.1212 36.9046 43.248C37.9323 43.404 38.9704 43.4798 40.0096 43.4746C40.7076 43.4746 41.4216 43.4746 42.1437 43.426C42.8076 43.3973 43.4693 43.3297 44.1254 43.2237V37.7044C43.7813 37.7777 43.4329 37.8291 43.0824 37.8581C42.7133 37.8905 42.3282 37.9067 41.9351 37.9067Z" fill="#003D4F"/>
<path d="M275.247 16.6064C269.318 16.6064 267.048 22.1176 267.048 22.1176H266.951V17.3024H260.244V43.1995H267.296V32.3713C267.296 26.0589 268.516 23.2425 273.851 23.2425C274.812 23.2285 275.76 23.4566 276.611 23.9062L279.636 17.9175C278.333 17.0547 276.806 16.5986 275.247 16.6064Z" fill="#003D4F"/>
<path d="M226.171 17.3112L221.446 34.8483H221.349L216.977 17.3112H210.117L205.841 34.905H205.744L201.027 17.3112L196.43 26.3994L201.725 43.2244H209.026L213.399 25.8248H213.495L218.068 43.2244H225.329L233.424 17.3112H226.171Z" fill="#003D4F"/>
</svg>
