<svg width="416" height="67" viewBox="0 0 416 67" fill="none" xmlns="http://www.w3.org/2000/svg">
<path d="M27.6879 0L0 54.6415H12.862L40.56 0H27.6879Z" fill="#F2617A"/>
<path d="M187.039 21.873L184.82 26.2414H184.688C183.771 24.4973 182.353 23.0713 180.618 22.1492C178.865 21.339 176.95 20.9436 175.021 20.9932C172.94 20.9492 170.878 21.4052 169.008 22.3231C167.299 23.1743 165.801 24.3975 164.622 25.9038C163.413 27.452 162.505 29.2151 161.946 31.101C161.33 33.088 161.021 35.1582 161.03 37.2393C161.016 39.3776 161.272 41.509 161.793 43.5823C162.268 45.4844 163.115 47.2721 164.286 48.8408C165.434 50.3537 166.923 51.5705 168.631 52.3908C170.608 53.3023 172.766 53.7468 174.94 53.6901C176.887 53.6995 178.812 53.2768 180.577 52.4522C182.335 51.6626 183.786 50.3148 184.709 48.6157H184.831V52.933C184.831 58.0483 182.45 60.9742 177.708 60.9742C172.966 60.9742 170.442 58.9281 169.099 57.2503L165.863 63.6853C165.863 63.6853 169.526 67 176.456 67C187.944 67 193.337 61.3834 193.337 52.5442V21.8525L187.039 21.873ZM184.352 41.2395C184.052 42.2788 183.57 43.2559 182.928 44.1245C182.292 44.9769 181.475 45.6759 180.536 46.1706C179.502 46.6918 178.356 46.9517 177.199 46.9276C175.981 46.9736 174.776 46.6645 173.729 46.0376C172.816 45.4626 172.05 44.6814 171.49 43.7562C170.906 42.7947 170.503 41.7336 170.3 40.6256C170.065 39.4674 169.945 38.2884 169.944 37.1063C169.941 35.9206 170.081 34.7388 170.361 33.587C170.612 32.52 171.061 31.5101 171.684 30.6099C172.277 29.7644 173.053 29.0649 173.953 28.5638C174.951 28.0318 176.07 27.7708 177.199 27.8067C178.467 27.757 179.725 28.039 180.852 28.6252C181.789 29.1536 182.582 29.9054 183.162 30.8145C183.771 31.7966 184.199 32.8814 184.424 34.0167C184.682 35.2753 184.808 36.5577 184.8 37.8429C184.813 38.9908 184.662 40.1346 184.352 41.2395Z" fill="#003D4F"/>
<path d="M67.71 9.3916V26.4357H67.9033C68.9119 24.6527 70.4241 23.2107 72.2483 22.2923C73.8452 21.4648 75.611 21.0201 77.4074 20.9931C79.4225 20.9389 81.4284 21.2866 83.3092 22.0161C84.7309 22.5922 85.9792 23.53 86.9317 24.7375C87.8514 25.999 88.4837 27.4485 88.7837 28.9831C89.1569 30.8072 89.3377 32.6659 89.323 34.5281V54.6823H80.3888V36.1343C80.5283 34.0406 80.0918 31.9488 79.127 30.088C78.2926 28.7478 76.7968 28.0419 74.6599 28.0419C72.2178 28.0419 70.4574 28.7785 69.3585 30.2313C68.2595 31.684 67.7202 34.0882 67.7202 37.3927V54.6414H58.7656V9.3916H67.71Z" fill="#003D4F"/>
<path d="M93.0763 31.1621C93.8095 29.1216 94.9683 27.2624 96.475 25.7092C97.981 24.1924 99.7824 23.0047 101.766 22.2206C106.256 20.5804 111.176 20.5804 115.666 22.2206C117.68 22.9839 119.504 24.1793 121.012 25.7235C122.52 27.2676 123.675 29.1236 124.397 31.1621C125.224 33.4567 125.631 35.883 125.598 38.3235C125.628 40.7437 125.221 43.1494 124.397 45.4235C123.651 47.4456 122.493 49.2889 120.998 50.8355C119.482 52.3344 117.664 53.4891 115.666 54.2218C111.166 55.8202 106.257 55.8202 101.756 54.2218C99.7681 53.46 97.9643 52.2812 96.4648 50.7638C94.963 49.2226 93.8045 47.3778 93.0662 45.3519C92.2368 43.0791 91.8298 40.6725 91.8654 38.2519C91.8391 35.8344 92.2494 33.4322 93.0763 31.1621ZM101.217 42.119C101.442 43.3102 101.88 44.4506 102.509 45.4849C103.105 46.468 103.938 47.2843 104.931 47.8584C106.091 48.4895 107.398 48.7968 108.716 48.7484C110.041 48.7926 111.353 48.4856 112.522 47.8584C113.531 47.2916 114.379 46.4745 114.984 45.4849C115.61 44.4488 116.048 43.3091 116.277 42.119C116.531 40.8598 116.658 39.5778 116.653 38.2928C116.656 36.9944 116.53 35.6989 116.277 34.4256C116.053 33.2342 115.615 32.0936 114.984 31.0598C114.366 30.0659 113.518 29.2375 112.512 28.6454C111.347 28.0064 110.033 27.692 108.706 27.7348C107.473 27.6688 106.245 27.9391 105.153 28.5172C104.06 29.0953 103.143 29.9597 102.499 31.0189C101.865 32.0506 101.426 33.192 101.207 34.3847C100.95 35.6576 100.821 36.9531 100.82 38.2519C100.816 39.5509 100.946 40.8468 101.207 42.119H101.217Z" fill="#003D4F"/>
<path d="M150.021 54.6418V50.1301H149.837C148.812 51.9127 147.272 53.3398 145.421 54.2223C143.686 55.0447 141.793 55.4743 139.875 55.4807C137.87 55.5449 135.871 55.2255 133.984 54.5395C132.555 53.9869 131.302 53.0531 130.361 51.8386C129.432 50.5813 128.796 49.1304 128.499 47.5929C128.126 45.7688 127.945 43.9102 127.96 42.048V21.8733H136.914V40.3804C136.775 42.4773 137.212 44.5724 138.176 46.4369C139.011 47.7669 140.503 48.4489 142.653 48.483C145.089 48.483 146.853 47.7532 147.945 46.2937C149.034 44.8409 149.583 42.4367 149.583 39.1323V21.8733H158.527V54.6111L150.021 54.6418Z" fill="#003D4F"/>
<path d="M205.629 9.3916V26.4357H205.812C206.826 24.6535 208.342 23.2121 210.167 22.2923C211.764 21.4648 213.53 21.0201 215.326 20.9931C217.342 20.9389 219.348 21.2866 221.228 22.0161C222.657 22.5761 223.915 23.4998 224.881 24.6965C225.8 25.9596 226.436 27.4082 226.744 28.9422C227.113 30.7667 227.291 32.6253 227.273 34.4872V54.6414H218.328V36.1343C218.463 34.041 218.027 31.9504 217.067 30.088C216.225 28.724 214.733 28.0419 212.589 28.0419C210.147 28.0419 208.387 28.7785 207.298 30.2313C206.209 31.684 205.66 34.0882 205.66 37.3927V54.6414H196.705V9.3916H205.629Z" fill="#003D4F"/>
<path d="M295.562 31.1631C296.287 29.1329 297.439 27.2836 298.938 25.7407C300.438 24.1979 302.25 22.9976 304.252 22.2215C308.742 20.5814 313.662 20.5814 318.152 22.2215C320.163 22.9891 321.986 24.1859 323.493 25.7295C325 27.2732 326.156 29.1269 326.883 31.1631C327.71 33.4577 328.117 35.884 328.083 38.3245C328.114 40.7447 327.707 43.1504 326.883 45.4245C326.138 47.4495 324.976 49.2936 323.474 50.8364C321.966 52.3362 320.154 53.4912 318.162 54.2228C313.662 55.8212 308.752 55.8212 304.252 54.2228C302.263 53.4635 300.458 52.2844 298.961 50.7648C297.458 49.222 296.297 47.3779 295.552 45.3529C294.731 43.0781 294.327 40.6725 294.361 38.2528C294.337 35.8364 294.743 33.4351 295.562 31.1631ZM303.703 42.12C303.932 43.3101 304.369 44.4497 304.995 45.4859C305.598 46.4672 306.433 47.2828 307.427 47.8593C308.587 48.4905 309.894 48.7978 311.212 48.7494C312.536 48.7936 313.849 48.4866 315.018 47.8593C316.025 47.2897 316.872 46.4732 317.48 45.4859C318.106 44.4497 318.544 43.3101 318.773 42.12C319.027 40.8608 319.153 39.5787 319.149 38.2938C319.152 36.9953 319.026 35.6999 318.773 34.4266C318.549 33.2351 318.111 32.0946 317.48 31.0608C316.859 30.0692 316.012 29.2414 315.008 28.6463C313.842 28.0074 312.529 27.693 311.202 27.7358C309.881 27.6886 308.573 28.0033 307.417 28.6463C306.434 29.2376 305.602 30.0501 304.985 31.0198C304.354 32.0537 303.917 33.1942 303.692 34.3857C303.444 35.6597 303.318 36.9547 303.316 38.2528C303.314 39.5512 303.44 40.8466 303.692 42.12H303.703Z" fill="#003D4F"/>
<path d="M365.031 9.3916V33.6687L376.305 21.8729H386.898L374.606 33.9143L388.292 54.6414H377.445L368.501 40.0015L365.031 43.3571V54.6107H356.076V9.3916H365.031Z" fill="#003D4F"/>
<path d="M394.905 46.4978C395.286 47.1739 395.811 47.7572 396.441 48.2063C397.102 48.6737 397.839 49.0201 398.619 49.2294C399.453 49.4442 400.312 49.5508 401.173 49.5465C401.841 49.5444 402.506 49.4689 403.157 49.3214C403.82 49.1875 404.458 48.9529 405.05 48.6258C405.611 48.3164 406.095 47.8826 406.464 47.3572C406.872 46.7565 407.073 46.0375 407.034 45.3111C407.034 43.9606 406.139 42.9478 404.358 42.2419C401.92 41.3813 399.424 40.6975 396.889 40.1958C395.587 39.8991 394.315 39.5512 393.073 39.1727C391.89 38.8214 390.762 38.3012 389.725 37.6279C388.773 36.9901 387.976 36.1436 387.395 35.1521C386.776 34.0418 386.47 32.7825 386.51 31.51C386.434 29.6964 386.86 27.8972 387.741 26.3129C388.533 24.9842 389.651 23.8817 390.987 23.1107C392.41 22.309 393.959 21.7588 395.566 21.4841C397.268 21.1666 398.995 21.009 400.725 21.0135C402.451 21.0075 404.172 21.1754 405.864 21.5148C407.436 21.818 408.942 22.3999 410.311 23.2335C411.618 24.0381 412.728 25.1292 413.557 26.4254C414.48 27.9521 415.011 29.6851 415.103 31.4691H406.597C406.614 30.7603 406.442 30.0599 406.099 29.4408C405.755 28.8217 405.252 28.3068 404.643 27.9498C403.35 27.3099 401.922 26.9939 400.481 27.029C399.934 27.0311 399.387 27.0618 398.843 27.1211C398.289 27.1793 397.747 27.3207 397.235 27.5406C396.755 27.7402 396.332 28.0566 396.004 28.4613C395.65 28.9184 395.473 29.4891 395.505 30.0675C395.492 30.4404 395.563 30.8115 395.715 31.1521C395.867 31.4927 396.094 31.7937 396.38 32.0318C397.059 32.5911 397.841 33.0116 398.68 33.2697C399.745 33.6188 400.828 33.9057 401.926 34.129C403.147 34.3882 404.389 34.6644 405.65 34.9577C406.938 35.2446 408.208 35.6032 409.456 36.0319C410.635 36.4223 411.75 36.9879 412.763 37.7097C413.724 38.3926 414.523 39.2798 415.103 40.3083C415.729 41.4867 416.034 42.81 415.989 44.1448C416.074 45.917 415.685 47.6798 414.864 49.2503C414.043 50.8207 412.818 52.1417 411.318 53.076C409.864 53.9931 408.253 54.6281 406.566 54.9482C404.77 55.3049 402.943 55.4831 401.112 55.4802C399.249 55.4851 397.391 55.2966 395.566 54.9175C393.856 54.5734 392.223 53.9219 390.743 52.9942C389.213 52.053 387.954 50.7283 387.087 49.15C386.22 47.5718 385.775 45.7941 385.798 43.9913H394.304C394.277 44.8659 394.484 45.7317 394.905 46.4978Z" fill="#003D4F"/>
<path d="M246.178 47.9199C245.103 48.0516 244.017 47.7823 243.126 47.1628C242.51 46.2669 242.242 45.1749 242.373 44.0936V27.8987H247.369L250.422 21.8729H242.383V12.0515H233.428V21.8729H228.951L225.898 27.8884H233.418V47.2242C233.36 48.6023 233.643 49.9734 234.242 51.2141C234.753 52.1949 235.529 53.0106 236.481 53.5672C237.496 54.1352 238.607 54.5098 239.758 54.672C241.061 54.8693 242.378 54.9651 243.696 54.9585C244.581 54.9585 245.476 54.9585 246.402 54.8971C247.248 54.8612 248.09 54.7758 248.926 54.6414V47.6641C248.489 47.7568 248.048 47.8217 247.603 47.8585C247.165 47.8994 246.687 47.9199 246.178 47.9199Z" fill="#003D4F"/>
<path d="M53.1859 47.9199C52.1105 48.0507 51.0247 47.7814 50.1332 47.1628C49.517 46.2669 49.2491 45.1749 49.3802 44.0936V27.8987H53.9897L57.0424 21.8729H49.4005V12.0515H40.4561V21.8729H35.9687L32.916 27.8884H40.446V47.2242C40.3847 48.6014 40.6644 49.9724 41.26 51.2141C41.7738 52.1927 42.5491 53.0076 43.4987 53.5672C44.5239 54.1372 45.6451 54.5118 46.8057 54.672C48.1091 54.8693 49.4257 54.9651 50.7437 54.9585C51.629 54.9585 52.5346 54.9585 53.4504 54.8971C54.2924 54.8608 55.1316 54.7754 55.9638 54.6414V47.6641C55.5274 47.7568 55.0855 47.8217 54.641 47.8585C54.1729 47.8994 53.6845 47.9199 53.1859 47.9199Z" fill="#003D4F"/>
<path d="M349.095 20.993C341.575 20.993 338.695 27.9601 338.695 27.9601H338.573V21.8729H330.066V54.6107H339.011V40.9222C339.011 32.9423 340.557 29.3821 347.324 29.3821C348.542 29.3644 349.746 29.6527 350.825 30.221L354.661 22.6504C353.008 21.5597 351.072 20.9832 349.095 20.993Z" fill="#003D4F"/>
<path d="M286.852 21.8839L280.858 44.0536H280.736L275.191 21.8839H266.49L261.067 44.1252H260.945L254.961 21.8839L249.131 33.3728L255.847 54.6422H265.107L270.652 32.6465H270.774L276.574 54.6422H285.783L296.051 21.8839H286.852Z" fill="#003D4F"/>
</svg>
