<svg width="120" height="18" viewBox="0 0 120 18" fill="none" xmlns="http://www.w3.org/2000/svg">
<g clip-path="url(#clip0_1392_20344)">
<mask id="mask0_1392_20344" style="mask-type:luminance" maskUnits="userSpaceOnUse" x="0" y="0" width="120" height="18">
<path d="M120 0H0V18H120V0Z" fill="white"/>
</mask>
<g mask="url(#mask0_1392_20344)">
<path d="M10.1413 -0.0107422L2.625 14.7834H6.11804L13.6315 -0.0107422H10.1413Z" fill="#F2617A"/>
<path d="M53.0238 5.88541L52.4297 7.05813H52.3941C52.1011 6.55005 51.737 6.18752 51.3017 5.97055C50.8664 5.75633 50.3599 5.64648 49.7849 5.64648C49.1744 5.64648 48.635 5.76458 48.1641 6.00351C47.6932 6.24245 47.3017 6.56379 46.9841 6.96476C46.6693 7.36849 46.4283 7.83264 46.264 8.35995C46.0998 8.88726 46.0176 9.4338 46.0176 10.0023C46.0176 10.6038 46.0888 11.1723 46.2284 11.7133C46.3708 12.2516 46.5926 12.724 46.8992 13.125C47.2031 13.5287 47.5946 13.8446 48.0682 14.0781C48.542 14.3115 49.1086 14.4268 49.7657 14.4268C50.2969 14.4268 50.8034 14.317 51.2825 14.0945C51.7643 13.8721 52.134 13.5314 52.3941 13.0645H52.4269V14.2208C52.4269 15.5858 51.7835 16.3823 50.5159 16.3823C49.2674 16.3823 48.5611 15.8247 48.1997 15.3826L47.3209 17.11C47.3209 17.11 48.3037 17.9999 50.1709 17.9999C53.2675 17.9999 54.7158 16.5004 54.7158 14.1219V5.88817H53.0238V5.88541ZM52.301 11.0817C52.2162 11.3701 52.0903 11.6281 51.9205 11.8562C51.7507 12.0841 51.5371 12.2653 51.2771 12.3999C51.017 12.5373 50.7185 12.6032 50.3791 12.6032C50.0067 12.6032 49.6946 12.5235 49.4454 12.3642C49.1962 12.2049 48.9964 12.0018 48.8431 11.7518C48.6898 11.5019 48.583 11.2217 48.52 10.9086C48.4571 10.5955 48.4269 10.2825 48.4269 9.96386C48.4269 9.63429 48.4625 9.3212 48.5365 9.01909C48.6104 8.71973 48.7281 8.45333 48.8924 8.21988C49.0566 7.98643 49.2593 7.80242 49.503 7.66785C49.7465 7.53052 50.0368 7.46461 50.3763 7.46461C50.7706 7.46461 51.0991 7.53877 51.3591 7.68708C51.6193 7.83537 51.8274 8.03313 51.9862 8.28305C52.145 8.53298 52.2572 8.8186 52.3257 9.14268C52.3941 9.46676 52.4269 9.81006 52.4269 10.1726C52.4297 10.4884 52.3859 10.7933 52.301 11.0817Z" fill="#EDF1F3"/>
<path d="M20.921 2.53223V7.10778H20.9731C21.2769 6.59694 21.6684 6.22618 22.1421 5.99273C22.6157 5.75928 23.0811 5.64393 23.5329 5.64393C24.1763 5.64393 24.7047 5.73182 25.1181 5.90759C25.5316 6.08337 25.8546 6.32779 26.0928 6.63813C26.331 6.94848 26.4953 7.33024 26.5939 7.77791C26.6897 8.22557 26.739 8.72267 26.739 9.26647V14.6769H24.3297V9.71414C24.3297 8.98907 24.2174 8.44803 23.9901 8.08824C23.7629 7.73121 23.3632 7.5527 22.7855 7.5527C22.1284 7.5527 21.6547 7.74769 21.3618 8.14043C21.0688 8.53317 20.921 9.17584 20.921 10.0712V14.6824H18.5117V2.53497H20.921V2.53223Z" fill="#EDF1F3"/>
<path d="M27.743 8.37626C27.9566 7.80501 28.2632 7.31614 28.6575 6.91241C29.0517 6.50868 29.5281 6.19835 30.0811 5.97588C30.6342 5.75617 31.2557 5.64355 31.9456 5.64355C32.6355 5.64355 33.2598 5.75342 33.8211 5.97588C34.3796 6.19835 34.8587 6.50868 35.253 6.91241C35.6472 7.31614 35.9539 7.80225 36.1675 8.37626C36.381 8.95026 36.4905 9.58743 36.4905 10.2905C36.4905 10.9936 36.3837 11.6281 36.1675 12.1965C35.9511 12.7623 35.6472 13.2484 35.253 13.6522C34.856 14.0558 34.3796 14.3635 33.8211 14.5777C33.2626 14.7919 32.6384 14.9017 31.9456 14.9017C31.2557 14.9017 30.6342 14.7946 30.0811 14.5777C29.5281 14.3635 29.0517 14.0531 28.6575 13.6522C28.2605 13.2511 27.9566 12.765 27.743 12.1965C27.5267 11.6308 27.4199 10.9936 27.4199 10.2905C27.4199 9.58743 27.5267 8.95026 27.743 8.37626ZM29.9306 11.3204C29.999 11.6555 30.114 11.9549 30.2783 12.2213C30.4426 12.4877 30.6588 12.6991 30.9299 12.8584C31.2009 13.0177 31.5404 13.0973 31.9484 13.0973C32.3563 13.0973 32.6986 13.0177 32.9751 12.8584C33.2516 12.6991 33.4734 12.4877 33.6376 12.2213C33.8019 11.9549 33.9169 11.6527 33.9854 11.3204C34.0538 10.9854 34.0867 10.6421 34.0867 10.2905C34.0867 9.93897 34.0538 9.59292 33.9854 9.25236C33.9169 8.91182 33.8019 8.61245 33.6376 8.35154C33.4734 8.09063 33.2544 7.87915 32.9751 7.71437C32.6986 7.54959 32.3563 7.46719 31.9484 7.46719C31.5432 7.46719 31.2037 7.54959 30.9299 7.71437C30.6588 7.87915 30.4398 8.09063 30.2783 8.35154C30.114 8.61245 29.999 8.91182 29.9306 9.25236C29.8621 9.59292 29.8292 9.93897 29.8292 10.2905C29.8292 10.6421 29.8621 10.9854 29.9306 11.3204Z" fill="#EDF1F3"/>
<path d="M43.0654 14.6793V13.4544H43.0133C42.7094 13.9652 42.3124 14.3332 41.8251 14.5612C41.3378 14.7865 40.8422 14.9018 40.333 14.9018C39.6896 14.9018 39.1612 14.8166 38.7477 14.6464C38.3344 14.4761 38.0113 14.2344 37.773 13.924C37.5348 13.6137 37.3678 13.2319 37.2721 12.7843C37.1762 12.3366 37.127 11.8395 37.127 11.2957V5.88525H39.5363V10.8535C39.5363 11.5786 39.6485 12.1197 39.8757 12.4794C40.1003 12.8365 40.5028 13.0149 41.0804 13.0149C41.7347 13.0149 42.2111 12.82 42.5041 12.4272C42.797 12.0373 42.9449 11.3919 42.9449 10.4965V5.88525H45.3542V14.6793H43.0654Z" fill="#EDF1F3"/>
<path d="M58.0265 2.53223V7.10778H58.0785C58.3825 6.59694 58.774 6.22618 59.2476 5.99273C59.7213 5.75928 60.1867 5.64393 60.6385 5.64393C61.2819 5.64393 61.8102 5.73182 62.2237 5.90759C62.6371 6.08337 62.9602 6.32779 63.1984 6.63813C63.4366 6.94848 63.6008 7.33024 63.6994 7.77791C63.7952 8.22557 63.8445 8.72267 63.8445 9.26647V14.6769H61.4352V9.71414C61.4352 8.98907 61.3229 8.44803 61.0957 8.08824C60.8685 7.73121 60.4687 7.5527 59.891 7.5527C59.2339 7.5527 58.7603 7.74769 58.4674 8.14043C58.1744 8.53317 58.0265 9.17584 58.0265 10.0712V14.6824H55.6172V2.53497H58.0265V2.53223Z" fill="#EDF1F3"/>
<path d="M82.2274 8.37626C82.4409 7.80501 82.7477 7.31614 83.1419 6.91241C83.5362 6.50868 84.0125 6.19835 84.5656 5.97588C85.1186 5.75617 85.7402 5.64355 86.4301 5.64355C87.12 5.64355 87.7443 5.75342 88.3055 5.97588C88.8641 6.19835 89.3432 6.50868 89.7374 6.91241C90.1344 7.31614 90.4383 7.80225 90.6519 8.37626C90.8654 8.95026 90.975 9.58743 90.975 10.2905C90.975 10.9936 90.8682 11.6281 90.6519 12.1965C90.4383 12.7623 90.1317 13.2484 89.7374 13.6522C89.3432 14.0558 88.8641 14.3635 88.3055 14.5777C87.747 14.7919 87.12 14.9017 86.4301 14.9017C85.7402 14.9017 85.1186 14.7946 84.5656 14.5777C84.0125 14.3635 83.5362 14.0531 83.1419 13.6522C82.7449 13.2511 82.4409 12.765 82.2274 12.1965C82.0139 11.6308 81.9043 10.9936 81.9043 10.2905C81.9043 9.58743 82.0139 8.95026 82.2274 8.37626ZM84.415 11.3204C84.4834 11.6555 84.5985 11.9549 84.7627 12.2213C84.927 12.4877 85.1433 12.6991 85.4144 12.8584C85.6853 13.0177 86.0249 13.0973 86.4328 13.0973C86.8408 13.0973 87.1803 13.0177 87.4595 12.8584C87.736 12.6991 87.9578 12.4877 88.1193 12.2213C88.2836 11.9549 88.3985 11.6527 88.4671 11.3204C88.5355 10.9881 88.5683 10.6421 88.5683 10.2905C88.5683 9.93897 88.5328 9.59292 88.4671 9.25236C88.4014 8.91182 88.2836 8.61245 88.1193 8.35154C87.9551 8.09063 87.736 7.87915 87.4595 7.71437C87.183 7.54959 86.8408 7.46719 86.4328 7.46719C86.0249 7.46719 85.6881 7.54959 85.4144 7.71437C85.1433 7.87915 84.927 8.09063 84.7627 8.35154C84.5985 8.61245 84.4834 8.91182 84.415 9.25236C84.3466 9.59292 84.3137 9.93897 84.3137 10.2905C84.3137 10.6421 84.3466 10.9854 84.415 11.3204Z" fill="#EDF1F3"/>
<path d="M100.915 2.53223V9.04675L103.952 5.88287H106.802L103.494 9.11541L107.174 14.6797H104.258L101.849 10.7495L100.915 11.6503V14.6797H98.5059V2.53223H100.915Z" fill="#EDF1F3"/>
<path d="M108.955 12.4935C109.062 12.6803 109.201 12.8341 109.371 12.9521C109.541 13.0702 109.735 13.1581 109.957 13.2158C110.179 13.2735 110.406 13.301 110.644 13.301C110.814 13.301 110.992 13.2817 111.178 13.2406C111.364 13.2021 111.534 13.1389 111.687 13.0538C111.84 12.9687 111.966 12.856 112.068 12.7133C112.169 12.5731 112.221 12.3947 112.221 12.1777C112.221 11.8152 111.98 11.5433 111.501 11.3619C111.019 11.1807 110.351 10.9994 109.491 10.8182C109.141 10.7385 108.799 10.6452 108.465 10.538C108.131 10.4309 107.835 10.2881 107.575 10.1124C107.315 9.93659 107.107 9.71686 106.948 9.45046C106.789 9.18406 106.71 8.85724 106.71 8.47274C106.71 7.90423 106.819 7.44008 107.041 7.07755C107.263 6.71501 107.553 6.42939 107.914 6.21791C108.276 6.00919 108.684 5.86088 109.135 5.77574C109.587 5.6906 110.05 5.64941 110.526 5.64941C111.003 5.64941 111.463 5.6961 111.909 5.78673C112.355 5.87736 112.755 6.03116 113.106 6.24538C113.456 6.45961 113.746 6.74798 113.978 7.10502C114.209 7.46205 114.348 7.91246 114.395 8.45626H112.106C112.073 7.99211 111.898 7.67627 111.58 7.51149C111.263 7.3467 110.89 7.26431 110.461 7.26431C110.326 7.26431 110.179 7.27255 110.02 7.28902C109.861 7.3055 109.719 7.34396 109.587 7.39888C109.458 7.45656 109.346 7.53895 109.256 7.64606C109.165 7.75318 109.122 7.89873 109.122 8.07999C109.122 8.29696 109.201 8.47274 109.36 8.60731C109.519 8.74463 109.724 8.85448 109.979 8.93962C110.233 9.02476 110.523 9.10167 110.852 9.17033C111.181 9.23899 111.515 9.31313 111.851 9.39278C112.202 9.47243 112.544 9.56857 112.878 9.68117C113.212 9.79377 113.508 9.94482 113.768 10.1316C114.027 10.3183 114.236 10.5518 114.395 10.8292C114.553 11.1066 114.633 11.4499 114.633 11.8591C114.633 12.4386 114.518 12.922 114.285 13.3147C114.052 13.7074 113.752 14.0205 113.379 14.2595C113.007 14.4984 112.58 14.6659 112.098 14.762C111.616 14.8582 111.129 14.9076 110.63 14.9076C110.121 14.9076 109.623 14.8582 109.138 14.7538C108.654 14.6522 108.221 14.4819 107.84 14.2429C107.46 14.004 107.15 13.6909 106.907 13.2982C106.663 12.9082 106.532 12.4166 106.51 11.8261H108.799C108.793 12.0816 108.848 12.3067 108.955 12.4935Z" fill="#EDF1F3"/>
<path d="M68.9405 12.878C68.5326 12.878 68.2616 12.8094 68.1273 12.6747C67.9932 12.5375 67.9248 12.2656 67.9248 11.8591V7.50324H69.2691L70.0904 5.8856H67.9275V3.24902H65.5182V5.8856H64.3108L63.4922 7.49774L65.5182 7.5005V12.6884C65.5182 13.1307 65.5921 13.4878 65.7372 13.7596C65.8851 14.0315 66.085 14.2403 66.3396 14.3885C66.5941 14.5368 66.8872 14.6357 67.2212 14.6851C67.5551 14.7373 67.9083 14.762 68.2807 14.762C68.5188 14.762 68.7598 14.7565 69.0089 14.7456C69.2581 14.7346 69.4853 14.7127 69.688 14.6769V12.8039C69.5757 12.8258 69.4553 12.845 69.332 12.8561C69.2061 12.8725 69.0775 12.878 68.9405 12.878Z" fill="#EDF1F3"/>
<path d="M17.0108 12.878C16.6028 12.878 16.3319 12.8094 16.1976 12.6747C16.0635 12.5375 15.9951 12.2656 15.9951 11.8591V7.50324H17.2354L18.0567 5.8856H15.9978V3.24902H13.5885V5.8856H12.3811L11.5625 7.49774L13.5885 7.5005V12.6884C13.5885 13.1307 13.6624 13.4878 13.8075 13.7596C13.9553 14.0315 14.1553 14.2403 14.4099 14.3885C14.6644 14.5368 14.9574 14.6357 15.2915 14.6851C15.6255 14.7373 15.9786 14.762 16.3511 14.762C16.5892 14.762 16.8302 14.7565 17.0792 14.7456C17.3284 14.7346 17.5557 14.7127 17.7583 14.6769V12.8039C17.6461 12.8258 17.5256 12.845 17.4024 12.8561C17.2764 12.8725 17.1478 12.878 17.0108 12.878Z" fill="#EDF1F3"/>
<path d="M96.6316 5.64648C94.6055 5.64648 93.8334 7.5168 93.8334 7.5168H93.8006V5.88267H91.5117V14.6768H93.921V10.9883C93.921 8.84332 94.3372 7.89031 96.1552 7.89031C96.5302 7.89031 96.8396 7.97545 97.097 8.11551L98.1291 6.08316C97.7349 5.83049 97.2421 5.64648 96.6316 5.64648Z" fill="#EDF1F3"/>
<path d="M79.8809 5.88525L78.2711 11.8395H78.2382L76.7461 5.88525H74.4052L72.9459 11.856H72.913L71.3004 5.88525L69.7344 8.97223L71.5386 14.6793H74.03L75.525 8.77723H75.5579L77.1184 14.6793H79.5934L82.3587 5.88525H79.8809Z" fill="#EDF1F3"/>
</g>
</g>
<defs>
<clipPath id="clip0_1392_20344">
<rect width="120" height="18" fill="white"/>
</clipPath>
</defs>
</svg>
